<svg width="367" height="316" viewBox="0 0 367 316" fill="none" xmlns="http://www.w3.org/2000/svg">
<path d="M274.76 103.49C276.478 104.706 278.526 105.352 280.622 105.345V105.317C282.602 105.322 284.54 104.744 286.194 103.655C287.849 102.566 289.147 101.013 289.928 99.1905L294.227 86.0938C295.219 83.1267 296.887 80.4316 299.098 78.2219C301.31 76.0122 304.004 74.3485 306.968 73.3625L319.437 69.3014C321.449 68.598 323.187 67.2756 324.405 65.5233C325.622 63.7709 326.256 61.678 326.215 59.5433C326.175 57.4086 325.462 55.3413 324.179 53.6365C322.897 51.9316 321.109 50.6764 319.072 50.0499L306.765 46.045C303.789 45.051 301.085 43.376 298.867 41.1527C296.649 38.9294 294.979 36.219 293.988 33.2364L289.935 20.751C289.228 18.7624 287.921 17.0438 286.194 15.8341C284.467 14.6243 282.408 13.9833 280.301 14.0003C278.194 14.0173 276.145 14.6914 274.438 15.9289C272.731 17.1664 271.452 18.9059 270.777 20.9056L266.688 33.4964C265.701 36.3922 264.071 39.026 261.921 41.1996C259.771 43.3732 257.157 45.0298 254.276 46.045L241.815 50.0499C239.815 50.7433 238.082 52.0471 236.86 53.7781C235.637 55.5092 234.987 57.5805 235 59.7009C235.013 61.8213 235.689 63.8844 236.933 65.6001C238.177 67.3157 239.926 68.5979 241.934 69.2663L254.234 73.2642C257.21 74.2651 259.913 75.9451 262.13 78.1715C264.348 80.3979 266.018 83.11 267.011 86.0938L271.064 98.5652C271.758 100.554 273.049 102.275 274.76 103.49ZM334.262 149.483C332.924 148.528 331.919 147.177 331.387 145.619L329.087 138.551C328.641 137.205 327.889 135.983 326.89 134.979C325.89 133.975 324.672 133.218 323.33 132.768L316.381 130.499C314.791 129.959 313.409 128.936 312.427 127.572C311.445 126.208 310.913 124.571 310.904 122.89C310.902 121.218 311.422 119.587 312.392 118.226C313.361 116.865 314.731 115.843 316.31 115.301L323.365 113.011C324.677 112.544 325.865 111.781 326.838 110.783C327.81 109.784 328.541 108.575 328.975 107.249L331.247 100.287C331.782 98.7111 332.791 97.3408 334.137 96.3653C335.482 95.3897 337.097 94.857 338.758 94.8408C340.419 94.8246 342.043 95.3257 343.408 96.2748C344.772 97.224 345.808 98.5743 346.373 100.139L348.68 107.264C349.132 108.599 349.886 109.812 350.884 110.806C351.881 111.801 353.095 112.551 354.431 112.997L361.387 115.266C362.991 115.769 364.396 116.764 365.403 118.112C366.41 119.459 366.968 121.09 366.999 122.773C367.029 124.456 366.53 126.106 365.571 127.489C364.613 128.872 363.245 129.918 361.66 130.478L354.55 132.789C353.213 133.242 351.999 133.999 351.003 135.001C350.008 136.003 349.258 137.223 348.813 138.565L346.555 145.514C346.008 147.13 344.971 148.535 343.575 149.519C342.214 150.488 340.583 151.006 338.913 151C337.243 150.994 335.617 150.463 334.262 149.483Z" fill="black"/>
<path d="M8 254.135L40.5 230.135C40.5 230.135 29.5 150.135 28.5 118.635C27.5 87.1352 31 36.6348 48.5 25.135C66 13.6351 78.5 50.135 78.5 50.135M63 98.6333C79.0649 53.3653 85.5 10.6356 103.5 8.13523C121.5 5.63489 125 38.6351 125 38.6351M95.5 93.6352C95.5 93.6352 108.5 65.135 132 36.1351C155.5 7.13524 177.5 11.6353 184 13.6354C190.5 15.6355 201 26.6349 187.5 45.6351C178.948 57.6717 161 82.6351 161 82.6351M76.5 307.136C76.5 307.136 198.576 195.136 211.5 178.635C224.424 162.134 231 125.635 200.5 136.135C170 146.635 149.733 204.636 132.5 159.135C115.267 113.634 205.5 142.635 203 110.635C200.5 78.6351 170 82.5594 153 87.1354C136 91.7113 122 104.136 115 112.136" stroke="black" stroke-width="16" stroke-linecap="round"/>
</svg>
